<svg height="512pt" viewBox="0 0 512 512.0519" width="512pt" xmlns="http://www.w3.org/2000/svg"><path d="m497.007812 204.03125-62.464843 70.144531-11.347657 12.714844c-6.003906 6.765625-14.453124 10.867187-23.480468 11.394531-9.03125.527344-17.898438-2.558594-24.648438-8.578125l-12.800781-11.347656-4.777344-4.269531-46.167969-41.128906c-3.511718-3.128907-8.894531-2.824219-12.03125.683593l-232.703124 261.289063c-4.679688 5.234375-11.304688 8.320312-18.320313 8.527344-7.019531.210937-13.816406-2.472657-18.800781-7.417969-2.910156-2.847657-5.027344-6.40625-6.144532-10.324219-2.601562-9.101562-.347656-18.898438 5.976563-25.941406l237.394531-266.582032 28.417969-31.828124c3.113281-3.53125 8.496094-3.875 12.03125-.769532l31.828125 28.417969 51.03125 45.394531c3.511719 3.128906 8.894531 2.824219 12.03125-.679687l55.808594-62.636719c6.929687-7.847656 17.710937-11.085938 27.816406-8.363281 2.980469.886719 5.761719 2.335937 8.195312 4.265625 5.492188 4.386718 8.945313 10.835937 9.542969 17.839844.597657 7.003906-1.714843 13.945312-6.386719 19.195312zm0 0" fill="#a4c2f7"/><path d="m480.367188 187.394531-62.378907 70.140625-11.347656 12.714844c-6.019531 6.773438-14.480469 10.875-23.523437 11.402344-9.042969.527344-17.925782-2.5625-24.691407-8.585938l-12.714843-11.347656-51.027344-45.398438c-3.515625-3.128906-8.898438-2.820312-12.035156.683594l-232.703126 261.289063c-6.671874 7.445312-17.058593 10.339843-26.625 7.425781-2.601562-9.101562-.347656-18.898438 5.976563-25.941406l237.394531-266.582032 28.417969-31.828124c3.113281-3.53125 8.496094-3.875 12.03125-.769532l31.828125 28.417969 51.03125 45.394531c3.511719 3.128906 8.894531 2.824219 12.03125-.679687l55.808594-62.636719c6.929687-7.847656 17.710937-11.085938 27.816406-8.363281 2.746094 8.578125.730469 17.964843-5.289062 24.664062zm0 0" fill="#e3e7f2"/><path d="m269.59375 138.632812c1.503906-1.691406 2.277344-3.910156 2.144531-6.167968-.128906-2.261719-1.152343-4.375-2.84375-5.878906l-63.71875-56.75-12.75-11.355469c-14.078125-12.535157-35.648437-11.285157-48.1875 2.789062l-11.347656 12.75-62.429687 70.09375c-4.675782 5.246094-6.988282 12.1875-6.394532 19.191407.59375 7.003906 4.039063 13.457031 9.535156 17.839843 11.214844 8.335938 26.96875 6.558594 36.050782-4.058593l55.792968-62.644532c1.503907-1.691406 3.621094-2.714844 5.878907-2.847656 2.257812-.128906 4.480469.640625 6.167969 2.148438l57.355468 51.078124c1.6875 1.507813 3.910156 2.277344 6.167969 2.148438 2.261719-.132812 4.375-1.15625 5.878906-2.847656zm0 0" fill="#e3e7f2"/><path d="m380.867188 412.074219-11.347657 12.800781-62.464843 70.058594c-4.667969 5.246094-11.285157 8.347656-18.304688 8.570312-7.015625.226563-13.820312-2.441406-18.816406-7.375-3.5-3.523437-5.878906-8.007812-6.824219-12.886718v-.085938c-1.46875-8.398438.984375-17.011719 6.65625-23.378906l55.808594-62.636719c3.125-3.511719 2.820312-8.894531-.683594-12.03125l-17.152344-15.1875v-.085937l-40.191406-35.753907c-1.363281-1.222656-2.316406-2.828125-2.730469-4.609375-.523437-2.683594.234375-5.460937 2.046875-7.507812l22.699219-25.429688c1.492188-1.710937 3.609375-2.746094 5.871094-2.871094 2.265625-.128906 4.484375.660157 6.160156 2.1875l63.660156 56.746094 12.796875 11.347656c14.046875 12.527344 15.304688 34.054688 2.816407 48.128907zm0 0" fill="#a4c2f7"/><path d="m360.984375 392.277344-11.347656 12.714844-62.378907 70.144531c-6.046874 6.785156-15.230468 9.867187-24.148437 8.105469v-.085938c-1.46875-8.398438.984375-17.011719 6.65625-23.378906l55.808594-62.636719c3.125-3.511719 2.820312-8.894531-.683594-12.03125l-17.152344-15.1875v-.085937c-.421875-1.734376-1.339843-3.308594-2.644531-4.523438l-40.277344-35.839844c-.523437-2.683594.234375-5.460937 2.046875-7.507812l22.699219-25.429688c1.492188-1.710937 3.609375-2.746094 5.871094-2.871094 2.265625-.128906 4.484375.660157 6.160156 2.1875l63.660156 56.746094c7.175782 12.785156 5.464844 28.714844-4.269531 39.679688zm0 0" fill="#e3e7f2"/><path d="m426.4375 122.199219c-25.367188 26.8125-67.453125 28.609375-95.011719 4.050781-27.554687-24.558594-30.601562-66.570312-6.878906-94.847656 15.988281-19.054688 41.078125-27.902344 65.484375-23.101563 24.402344 4.804688 44.265625 22.503907 51.839844 46.199219 7.570312 23.691406 1.660156 49.628906-15.433594 67.699219zm0 0" fill="#a4c2f7"/><path d="m400.835938 122.199219c-9.945313 11.210937-23.332032 18.804687-38.058594 21.589843-12.160156-2.246093-23.46875-7.796874-32.683594-16.042968-19.390625-17.265625-27.300781-44.042969-20.398438-69.074219 6.898438-25.027344 27.414063-43.96875 52.910157-48.859375 12.164062 2.246094 23.46875 7.796875 32.683593 16.042969 13.519532 12.035156 21.703126 28.953125 22.742188 47.023437 1.042969 18.070313-5.144531 35.8125-17.195312 49.320313zm0 0" fill="#d4e1f4"/><path d="m73.601562 181.144531c8.253907 6.320313 19.5 7.054688 28.507813 1.863281-1.011719-.550781-1.984375-1.171874-2.910156-1.863281-5.492188-4.382812-8.941407-10.835937-9.535157-17.839843-.59375-7.003907 1.71875-13.945313 6.394532-19.191407l62.429687-70.09375 11.351563-12.75c3.492187-3.871093 7.832031-6.886719 12.679687-8.804687-13.335937-5.46875-28.671875-1.941406-38.28125 8.804687l-11.347656 12.75-62.429687 70.09375c-4.675782 5.246094-6.988282 12.1875-6.394532 19.191407.59375 7.003906 4.039063 13.457031 9.535156 17.839843zm0 0" fill="#fff"/><path d="m23.320312 485.71875c1.117188 3.917969 3.234376 7.476562 6.144532 10.324219 8.199218 8.109375 20.828125 9.699219 30.78125 3.875-1.886719-1.066407-3.625-2.367188-5.179688-3.875-2.914062-2.847657-5.03125-6.40625-6.144531-10.324219-2.605469-9.101562-.347656-18.898438 5.972656-25.941406l237.398438-266.582032 22.773437-25.515624-7.925781-7.082032c-3.535156-3.105468-8.917969-2.761718-12.03125.769532l-28.417969 31.828124-237.394531 266.582032c-6.324219 7.042968-8.578125 16.839844-5.976563 25.941406zm0 0" fill="#fff"/><path d="m22.929688 454.085938 73.777343-82.84375 163.628907-183.722657 12.738281 11.359375-163.617188 183.714844-73.777343 82.839844zm0 0" fill="#fff"/><g fill="#428dff"><path d="m57.675781 427.894531c-3.519531-3.128906-8.90625-2.8125-12.039062.703125l-22.707031 25.488282 12.75 11.347656 22.695312-25.488282c1.507812-1.691406 2.277344-3.910156 2.148438-6.167968-.132813-2.261719-1.15625-4.375-2.847657-5.882813zm0 0"/><path d="m273.09375 198.878906-12.742188-11.359375-169.316406 190.097657c-2.027344 2.277343-2.6875 5.464843-1.726562 8.359374.957031 2.894532 3.386718 5.054688 6.371094 5.671876 2.988281.617187 6.074218-.402344 8.101562-2.679688zm0 0"/><path d="m68.335938 403.105469c-1.476563 1.710937-2.257813 3.914062-2.183594 6.171875l.269531 1.613281c.144531.558594.359375 1.097656.640625 1.601563.199219.507812.472656.980468.8125 1.402343.355469.445313.742188.867188 1.160156 1.261719 1.707032 1.476562 3.914063 2.253906 6.167969 2.175781 4.664063-.394531 8.207031-4.367187 8.058594-9.046875-.097657-1.117187-.40625-2.203125-.90625-3.207031-.480469-1.007813-1.148438-1.914063-1.972657-2.671875-1.679687-1.527344-3.902343-2.316406-6.171874-2.183594-2.265626.128906-4.382813 1.171875-5.875 2.882813zm0 0"/><path d="m47.421875 512c-8.992187.023438-17.625-3.535156-23.988281-9.890625-12.917969-13.324219-13.136719-34.433594-.496094-48.023437 2.007812-2.359376 5.128906-3.445313 8.164062-2.839844 3.035157.605468 5.507813 2.804687 6.457032 5.75.949218 2.945312.230468 6.175781-1.878906 8.4375-6.480469 6.859375-6.589844 17.554687-.25 24.542968 3.371093 3.246094 7.890624 5.03125 12.570312 4.957032 4.683594-.132813 9.101562-2.199219 12.203125-5.707032l232.695313-261.273437c3-3.394531 7.230468-5.445313 11.75-5.691406 4.515624-.253907 8.945312 1.277343 12.339843 4.265625l63.726563 56.78125c10.566406 9.378906 26.734375 8.445312 36.148437-2.09375l73.777344-82.839844c3.117187-3.5 4.660156-8.128906 4.261719-12.800781-.402344-4.671875-2.703125-8.972657-6.367188-11.894531-7.671875-5.496094-18.285156-4.15625-24.347656 3.082031l-55.800781 62.640625c-6.265625 7.035156-17.050781 7.65625-24.085938 1.390625l-82.84375-73.777344-28.363281 31.863281c-2.007812 2.355469-5.132812 3.441406-8.167969 2.839844-3.035156-.605469-5.503906-2.804688-6.453125-5.75-.949218-2.949219-.230468-6.175781 1.878906-8.441406l28.382813-31.871094c6.269531-7.03125 17.050781-7.65625 24.089844-1.390625l82.839843 73.78125 55.792969-62.636719c12.042969-14.140625 33.054688-16.359375 47.785157-5.050781 7.351562 5.828125 11.953124 14.449219 12.707031 23.800781.777343 9.339844-2.308594 18.589844-8.535157 25.597656l-73.777343 82.84375c-15.6875 17.5625-42.628907 19.125-60.238281 3.488282l-63.726563-56.753906-232.730469 261.230468c-6.230468 6.984375-15.046875 11.113282-24.402344 11.433594zm0 0"/><path d="m70.453125 152.644531c-3.363281-.003906-6.40625-1.976562-7.78125-5.042969-1.375-3.066406-.820313-6.65625 1.414063-9.164062l62.429687-70.09375c2.003906-2.355469 5.128906-3.441406 8.164063-2.839844 3.035156.605469 5.507812 2.804688 6.457031 5.75.949219 2.945313.230469 6.175782-1.882813 8.441406l-62.429687 70.089844c-1.617188 1.820313-3.9375 2.859375-6.371094 2.859375zm0 0"/><path d="m89.070312 195.039062c-7.546874.027344-14.878906-2.527343-20.777343-7.238281-7.355469-5.824219-11.964844-14.4375-12.730469-23.789062-.773438-9.339844 2.308594-18.589844 8.53125-25.601563 2.03125-2.273437 5.125-3.289062 8.109375-2.667968 2.984375.621093 5.410156 2.789062 6.367187 5.6875.953126 2.898437.289063 6.082031-1.746093 8.355468-3.117188 3.503906-4.65625 8.132813-4.257813 12.800782.398438 4.671874 2.703125 8.972656 6.367188 11.894531 7.675781 5.484375 18.277344 4.148437 24.355468-3.070313l55.789063-62.644531c6.265625-7.035156 17.050781-7.660156 24.089844-1.398437l57.351562 51.082031 22.699219-25.492188-76.464844-68.101562c-5.042968-4.570313-11.722656-6.894531-18.511718-6.445313-6.78125.375-13.132813 3.449219-17.636719 8.535156l-11.351563 12.75c-2.003906 2.355469-5.128906 3.441407-8.164062 2.835938s-5.503906-2.804688-6.453125-5.75-.230469-6.171875 1.878906-8.4375l11.347656-12.75c15.671875-17.59375 42.640625-19.15625 60.238281-3.488281l76.46875 68.105469c3.382813 3.011718 5.429688 7.242187 5.691407 11.765624.257812 4.519532-1.289063 8.960938-4.300781 12.339844l-22.699219 25.496094c-6.265625 7.039062-17.050781 7.664062-24.089844 1.402344l-57.351563-51.082032-55.792968 62.644532c-6.824219 7.742187-16.632813 12.207031-26.957032 12.261718zm0 0"/><path d="m287.890625 512.050781c-8.996094.023438-17.632813-3.535156-23.996094-9.890625-12.90625-13.332031-13.121093-34.429687-.496093-48.023437l55.773437-62.644531-57.351563-51.070313c-3.382812-3.011719-5.429687-7.242187-5.691406-11.761719-.261718-4.519531 1.28125-8.957031 4.292969-12.335937l22.699219-25.480469c3-3.398438 7.238281-5.453125 11.765625-5.703125 4.511719-.257813 8.945312 1.273437 12.332031 4.269531l76.492188 68.136719c8.453124 7.527344 13.570312 18.101563 14.222656 29.398437.65625 11.300782-3.207032 22.394532-10.734375 30.847657l-73.777344 82.839843c-6.25 6.960938-15.074219 11.066407-24.421875 11.367188-.367188.050781-.742188.050781-1.109375.050781zm8.003906-209.867187-22.699219 25.496094 57.351563 51.089843c7.035156 6.269531 7.65625 17.050781 1.390625 24.089844l-55.789062 62.644531c-6.476563 6.859375-6.585938 17.550782-.25 24.539063 3.292968 3.363281 7.863281 5.164062 12.5625 4.949219 4.683593-.128907 9.105468-2.191407 12.210937-5.699219l73.78125-82.839844c9.398437-10.558594 8.460937-26.738281-2.09375-36.140625zm0 0"/><path d="m375.382812 153.601562c-34.191406-.0625-64.222656-22.722656-73.667968-55.582031-9.449219-32.859375 3.964844-68.003906 32.898437-86.214843 28.9375-18.214844 66.429688-15.105469 91.96875 7.625 15.210938 13.546874 24.417969 32.582031 25.59375 52.917968 1.175781 20.335938-5.773437 40.304688-19.320312 55.515625-13.511719 15.253907-32.5625 24.472657-52.910157 25.601563-1.535156.136718-3.054687.136718-4.5625.136718zm.109376-136.535156c-27.476563-.023437-51.425782 18.695313-58.035157 45.367188-6.609375 26.667968 5.828125 54.40625 30.136719 67.214844 24.308594 12.804687 54.21875 7.378906 72.476562-13.152344 15.628907-17.570313 19.492188-42.675782 9.871094-64.132813-9.617187-21.457031-30.933594-35.273437-54.449218-35.296875zm0 0"/><path d="m76.824219 238.933594h-68.265625c-4.710938 0-8.5312502-3.820313-8.5312502-8.53125 0-4.714844 3.8203122-8.535156 8.5312502-8.535156h68.265625c4.714843 0 8.535156 3.820312 8.535156 8.535156 0 4.710937-3.820313 8.53125-8.535156 8.53125zm0 0"/><path d="m110.960938 273.066406h-68.269532c-4.710937 0-8.53125-3.820312-8.53125-8.53125 0-4.714844 3.820313-8.535156 8.53125-8.535156h68.269532c4.710937 0 8.53125 3.820312 8.53125 8.535156 0 4.710938-3.820313 8.53125-8.53125 8.53125zm0 0"/></g></svg>