<svg id="Flat" height="512" viewBox="0 0 512 512" width="512" xmlns="http://www.w3.org/2000/svg"><path d="m104 88h224v64h-224z" fill="#2b7cd4"/><path d="m144 112h16v16h-16z" fill="#eb352f"/><path d="m176 112h16v16h-16z" fill="#f2e368"/><path d="m208 112h80v16h-80z" fill="#a0cc00"/><path d="m104 24h224v64h-224z" fill="#3ea7ff"/><path d="m144 48h16v16h-16z" fill="#eb352f"/><path d="m176 48h16v16h-16z" fill="#f2e368"/><path d="m208 48h80v16h-80z" fill="#a0cc00"/><path d="m328 24h80v64h-80z" fill="#2b7cd4"/><path d="m328 88h80v64h-80z" fill="#104f91"/><g fill="#808080"><path d="m112 208h16v16h-16z"/><path d="m112 152h16v40h-16z"/><path d="m112 240h16v16h-16z"/><path d="m144 208h16v16h-16z"/><path d="m144 176h16v16h-16z"/><path d="m144 240h16v40h-16z"/><path d="m352 152h16v104h-16z"/><path d="m352 272h16v16h-16z"/><path d="m352 304h16v16h-16z"/><path d="m384 240h16v104h-16z"/><path d="m384 208h16v16h-16z"/><path d="m384 176h16v16h-16z"/></g><path d="m384 488h-136a16 16 0 0 1 -16-16 16 16 0 0 1 16-16h136z" fill="#e6e6e6"/><rect fill="#ccc" height="32" rx="16" width="136" x="336" y="456"/><path d="m457.75377 456h-103.50757a8 8 0 0 1 -7.76114-9.94029l20-80a8 8 0 0 1 7.76114-6.05971h103.50757a8 8 0 0 1 7.76114 9.94029l-20 80a8 8 0 0 1 -7.76114 6.05971z" fill="#e6e6e6"/><path d="m425.75377 456h-71.50757a8 8 0 0 1 -7.76114-9.94029l20-80a8 8 0 0 1 7.76114-6.05971h71.50757a8 8 0 0 1 7.76114 9.94029l-20 80a8 8 0 0 1 -7.76114 6.05971z" fill="#65dcff"/><path d="m128 424h136a16 16 0 0 0 16-16 16 16 0 0 0 -16-16h-136z" fill="#e6e6e6"/><rect fill="#ccc" height="32" rx="16" width="136" x="40" y="392"/><path d="m54.24621 392h103.50758a8 8 0 0 0 7.76114-9.94029l-20-80a8 8 0 0 0 -7.76114-6.05971h-103.50758a8 8 0 0 0 -7.76114 9.94029l20 80a8 8 0 0 0 7.76114 6.05971z" fill="#e6e6e6"/><path d="m86.24621 392h71.50758a8 8 0 0 0 7.76114-9.94029l-20-80a8 8 0 0 0 -7.76114-6.05971h-71.50758a8 8 0 0 0 -7.76114 9.94029l20 80a8 8 0 0 0 7.76114 6.05971z" fill="#65dcff"/></svg>