<svg id="Flat" height="512" viewBox="0 0 512 512" width="512" xmlns="http://www.w3.org/2000/svg"><path d="m72 24h256v160h-256z" fill="#3ea7ff"/><path d="m72 24h256v64h-256z" fill="#2b7cd4"/><rect fill="#eb352f" height="16" rx="8" width="16" x="96" y="48"/><rect fill="#f2e368" height="16" rx="8" width="16" x="128" y="48"/><rect fill="#a0cc00" height="16" rx="8" width="16" x="160" y="48"/><path d="m184 104h256v160h-256z" fill="#3ea7ff"/><path d="m184 104h256v64h-256z" fill="#2b7cd4"/><rect fill="#eb352f" height="16" rx="8" width="16" x="208" y="128"/><rect fill="#f2e368" height="16" rx="8" width="16" x="240" y="128"/><rect fill="#a0cc00" height="16" rx="8" width="16" x="272" y="128"/><path d="m24 216h256v160h-256z" fill="#65dcff"/><path d="m24 216h256v64h-256z" fill="#57c1ff"/><rect fill="#eb352f" height="16" rx="8" width="16" x="48" y="240"/><rect fill="#f2e368" height="16" rx="8" width="16" x="80" y="240"/><rect fill="#a0cc00" height="16" rx="8" width="16" x="112" y="240"/><path d="m232 328h256v160h-256z" fill="#65dcff"/><path d="m232 328h256v64h-256z" fill="#57c1ff"/><rect fill="#eb352f" height="16" rx="8" width="16" x="256" y="352"/><rect fill="#f2e368" height="16" rx="8" width="16" x="288" y="352"/><rect fill="#a0cc00" height="16" rx="8" width="16" x="320" y="352"/><g fill="#ff6f35"><path d="m402.3433 146.34326-10.3433 10.34326v-92.68652a7.99977 7.99977 0 0 0 -8-8h-96v16h88v84.68652l-10.34326-10.34326-11.31344 11.31348 24 24a7.99945 7.99945 0 0 0 11.31348 0l24-24z"/><path d="m256 56h16v16h-16z"/><path d="m304 288h-100.68648l10.34326-10.34326-11.31348-11.31348-24 24a7.99915 7.99915 0 0 0 0 11.31348l24 24 11.31348-11.31348-10.34326-10.34326h108.68648a7.99977 7.99977 0 0 0 8-8v-72h-16z"/><path d="m304 192h16v16h-16z"/><path d="m285.65678 410.34326-11.31348 11.31348 10.34326 10.34326h-140.68656v-96h-16v104a7.99977 7.99977 0 0 0 8 8h148.68656l-10.34326 10.34326 11.31348 11.31348 24-24a7.99915 7.99915 0 0 0 0-11.31348z"/><path d="m128 304h16v16h-16z"/></g></svg>