<svg height="512pt" viewBox="0 0 512 512" width="512pt" xmlns="http://www.w3.org/2000/svg"><path d="m466.671875 416v22c0 40.800781-33.203125 74-74 74h-81.671875v-30h81.671875c24.257813 0 44-19.738281 44-44v-22zm0 0" fill="#fe9022"/><path d="m466.089844 246h-30.109375c11.132812-115.683594-72.171875-216-180.230469-216-108.117188 0-191.355469 100.375-180.230469 216h-30.109375c-11.289062-133.339844 86.722656-246 210.339844-246 123.527344 0 221.636719 112.550781 210.339844 246zm0 0" fill="#fed941"/><path d="m466.089844 246h-30.109375c11.121093-115.589844-72.039063-215.851562-179.980469-216v-30c123.410156.148438 221.378906 112.640625 210.089844 246zm0 0" fill="#fcbe29"/><path d="m136 286v90c0 24.808594-20.191406 45-45 45h-61l-5-10v-160l5-10h61c24.808594 0 45 20.191406 45 45zm0 0" fill="#3e5959"/><path d="m331 316h-30c-5.015625 0-9.699219 2.507812-12.480469 6.679688l-12.988281 19.480468-20.300781-60.902344c-3.933594-11.800781-19.785157-13.964843-26.710938-3.578124l-25.546875 38.320312h-21.972656c-8.285156 0-15 6.714844-15 15s6.714844 15 15 15h30c5.015625 0 9.699219-2.507812 12.480469-6.679688l12.988281-19.480468 20.300781 60.902344c3.957031 11.875 19.816407 13.921874 26.710938 3.578124l25.546875-38.320312h21.972656c8.285156 0 15-6.714844 15-15s-6.714844-15-15-15zm0 0" fill="#30d9f6"/><path d="m346 331c0 8.28125-6.71875 15-15 15h-21.96875l-25.550781 38.320312c-6.902344 10.339844-22.75 8.300782-26.710938-3.582031l-.769531-2.308593v-94.859376l19.53125 58.589844 12.988281-19.480468c2.78125-4.167969 7.460938-6.679688 12.480469-6.679688h30c8.28125 0 15 6.71875 15 15zm0 0" fill="#19c0ef"/><path d="m281 421h-50c-19.328125 0-35 15.671875-35 35v21c0 19.328125 15.671875 35 35 35h85v-56c0-19.328125-15.671875-35-35-35zm0 0" fill="#547983"/><path d="m316 456v56h-60v-91h25c19.328125 0 35 15.671875 35 35zm0 0" fill="#3e5959"/><path d="m30 421h-5c-13.808594 0-25-11.191406-25-25v-130c0-13.808594 11.191406-25 25-25h5zm0 0" fill="#fcbe29"/><path d="m376 376v-90c0-24.808594 20.191406-45 45-45h61l5 10v160l-5 10h-61c-24.808594 0-45-20.191406-45-45zm0 0" fill="#293939"/><path d="m482 241h5c13.808594 0 25 11.191406 25 25v130c0 13.808594-11.191406 25-25 25h-5zm0 0" fill="#fe9022"/></svg>